HIERARCHY
ROOT Hips
{
	OFFSET 0.000000 83.214638 0.000000
	CHANNELS 6 Xposition Yposition Zposition Xrotation Yrotation Zrotation
	JOINT Pelvis
	{
		OFFSET 0.000000 0.000000 0.000000
		CHANNELS 3 Xrotation Yrotation Zrotation
		JOINT LeftUpLeg
		{
			OFFSET 8.479700 -4.795502 -0.379100
			CHANNELS 3 Xrotation Yrotation Zrotation
			JOINT LeftLeg
			{
				OFFSET 0.024144 -32.555107 0.112900
				CHANNELS 3 Xrotation Yrotation Zrotation
				JOINT LeftFoot
				{
					OFFSET -0.024144 -32.638630 -3.012600
					CHANNELS 3 Xrotation Yrotation Zrotation
					JOINT LeftToeBase
					{
						OFFSET 0.970200 -13.225400 11.864200
						CHANNELS 3 Xrotation Yrotation Zrotation
						End Site
						{
							OFFSET 0.000000 12.319262 0.000000
						}
					}
					JOINT LFootTongue
					{
						OFFSET 1.142400 -1.059800 6.665200
						CHANNELS 3 Xrotation Yrotation Zrotation
						End Site
						{
							OFFSET 0.000000 12.319262 0.000000
						}
					}
				}
				JOINT LeftPantLeg
				{
					OFFSET 0.918482 -16.533964 -2.284700
					CHANNELS 3 Xrotation Yrotation Zrotation
					End Site
					{
						OFFSET 0.350399 24.744368 0.000000
					}
				}
			}
		}
		JOINT RightUpLeg
		{
			OFFSET -8.479700 -4.795502 -0.379100
			CHANNELS 3 Xrotation Yrotation Zrotation
			JOINT RightLeg
			{
				OFFSET -0.023144 -32.555092 0.112900
				CHANNELS 3 Xrotation Yrotation Zrotation
				JOINT RightFoot
				{
					OFFSET 0.023144 -32.638641 -3.012700
					CHANNELS 3 Xrotation Yrotation Zrotation
					JOINT RightToeBase
					{
						OFFSET -0.970200 -13.225400 11.864200
						CHANNELS 3 Xrotation Yrotation Zrotation
						End Site
						{
							OFFSET 0.000000 12.319244 0.000000
						}
					}
					JOINT RFootTongue
					{
						OFFSET -1.142200 -1.059800 6.665200
						CHANNELS 3 Xrotation Yrotation Zrotation
						End Site
						{
							OFFSET 0.000000 12.319243 0.000000
						}
					}
				}
				JOINT RightPantLeg
				{
					OFFSET -0.919482 -16.533978 -2.284800
					CHANNELS 3 Xrotation Yrotation Zrotation
					End Site
					{
						OFFSET -0.350400 24.744419 0.000000
					}
				}
			}
		}
	}
	JOINT Spine
	{
		OFFSET 0.000000 7.722000 1.166200
		CHANNELS 3 Xrotation Yrotation Zrotation
		JOINT Spine1
		{
			OFFSET 0.000000 12.024101 0.248800
			CHANNELS 3 Xrotation Yrotation Zrotation
			JOINT Spine2
			{
				OFFSET 0.000000 11.502998 -0.491200
				CHANNELS 3 Xrotation Yrotation Zrotation
				JOINT Neck
				{
					OFFSET 0.000000 18.430702 -3.123100
					CHANNELS 3 Xrotation Yrotation Zrotation
					JOINT Head
					{
						OFFSET 0.000000 9.051102 1.034000
						CHANNELS 3 Xrotation Yrotation Zrotation
						JOINT HairB
						{
							OFFSET 0.208400 24.786102 24.822300
							CHANNELS 3 Xrotation Yrotation Zrotation
							End Site
							{
								OFFSET 0.000000 32.263779 0.000000
							}
						}
						JOINT HairA
						{
							OFFSET -7.081100 24.428299 23.196600
							CHANNELS 3 Xrotation Yrotation Zrotation
							End Site
							{
								OFFSET 0.000000 32.263779 0.000000
							}
						}
						JOINT Hat
						{
							OFFSET 16.728800 15.048294 -15.439601
							CHANNELS 3 Xrotation Yrotation Zrotation
							End Site
							{
								OFFSET 0.000000 32.263779 0.000000
							}
						}
					}
				}
				JOINT LeftShoulder
				{
					OFFSET 6.197800 13.665199 -4.064700
					CHANNELS 3 Xrotation Yrotation Zrotation
					JOINT LeftArm
					{
						OFFSET 7.778100 -0.187103 -1.709300
						CHANNELS 3 Xrotation Yrotation Zrotation
						JOINT LeftForeArm
						{
							OFFSET 22.049376 0.000000 0.000000
							CHANNELS 3 Xrotation Yrotation Zrotation
							JOINT LeftHand
							{
								OFFSET 23.009392 0.000000 0.000000
								CHANNELS 3 Xrotation Yrotation Zrotation
								JOINT LeftHandThumb1
								{
									OFFSET 3.507191 -2.063065 3.133727
									CHANNELS 3 Xrotation Yrotation Zrotation
									JOINT LeftHandThumb2
									{
										OFFSET 3.101337 -1.790558 1.790558
										CHANNELS 3 Xrotation Yrotation Zrotation
										JOINT LeftHandThumb3
										{
											OFFSET 3.058640 -1.765907 1.765906
											CHANNELS 3 Xrotation Yrotation Zrotation
											End Site
											{
												OFFSET -0.415260 3.926476 -0.049563
											}
										}
									}
								}
								JOINT LeftHandIndex1
								{
									OFFSET 11.334419 -0.901459 3.706815
									CHANNELS 3 Xrotation Yrotation Zrotation
									JOINT LeftHandIndex2
									{
										OFFSET 3.283112 0.000000 0.000000
										CHANNELS 3 Xrotation Yrotation Zrotation
										JOINT LeftHandIndex3
										{
											OFFSET 3.323853 0.000000 0.000000
											CHANNELS 3 Xrotation Yrotation Zrotation
											End Site
											{
												OFFSET -1.135597 3.097809 0.402452
											}
										}
									}
								}
								JOINT LeftHandMiddle1
								{
									OFFSET 11.335861 0.000000 0.000000
									CHANNELS 3 Xrotation Yrotation Zrotation
									JOINT LeftHandMiddle2
									{
										OFFSET 3.410492 0.000000 0.000000
										CHANNELS 3 Xrotation Yrotation Zrotation
										JOINT LeftHandMiddle3
										{
											OFFSET 3.312172 0.000000 0.000000
											CHANNELS 3 Xrotation Yrotation Zrotation
											End Site
											{
												OFFSET -1.150200 3.080154 0.400270
											}
										}
									}
								}
								JOINT LeftHandRing1
								{
									OFFSET 11.514786 -0.013176 -3.003090
									CHANNELS 3 Xrotation Yrotation Zrotation
									JOINT LeftHandRing2
									{
										OFFSET 3.053307 0.000000 0.000000
										CHANNELS 3 Xrotation Yrotation Zrotation
										JOINT LeftHandRing3
										{
											OFFSET 3.295807 0.000000 0.000000
											CHANNELS 3 Xrotation Yrotation Zrotation
											End Site
											{
												OFFSET -1.281006 3.013344 0.375733
											}
										}
									}
								}
								JOINT LeftHandPinky1
								{
									OFFSET 10.518692 -0.960396 -5.730441
									CHANNELS 3 Xrotation Yrotation Zrotation
									JOINT LeftHandPinky2
									{
										OFFSET 2.861649 0.000000 0.000000
										CHANNELS 3 Xrotation Yrotation Zrotation
										JOINT LeftHandPinky3
										{
											OFFSET 2.863380 0.000000 0.000000
											CHANNELS 3 Xrotation Yrotation Zrotation
											End Site
											{
												OFFSET -0.843597 2.711159 0.369971
											}
										}
									}
								}
							}
							JOINT LSleeve
							{
								OFFSET 6.676277 -0.344902 -1.011730
								CHANNELS 3 Xrotation Yrotation Zrotation
								End Site
								{
									OFFSET 0.000000 14.885353 0.000000
								}
							}
						}
					}
				}
				JOINT RightShoulder
				{
					OFFSET -6.197800 13.665199 -4.064700
					CHANNELS 3 Xrotation Yrotation Zrotation
					JOINT RightArm
					{
						OFFSET -7.778100 -0.187103 -1.709300
						CHANNELS 3 Xrotation Yrotation Zrotation
						JOINT RightForeArm
						{
							OFFSET -22.049376 0.000000 0.000000
							CHANNELS 3 Xrotation Yrotation Zrotation
							JOINT RightHand
							{
								OFFSET -23.009392 0.000000 0.000000
								CHANNELS 3 Xrotation Yrotation Zrotation
								JOINT RightHandThumb1
								{
									OFFSET -3.507191 -2.063065 3.133727
									CHANNELS 3 Xrotation Yrotation Zrotation
									JOINT RightHandThumb2
									{
										OFFSET -3.101337 -1.790558 1.790558
										CHANNELS 3 Xrotation Yrotation Zrotation
										JOINT RightHandThumb3
										{
											OFFSET -3.058640 -1.765907 1.765906
											CHANNELS 3 Xrotation Yrotation Zrotation
											End Site
											{
												OFFSET 0.415260 3.926476 -0.049563
											}
										}
									}
								}
								JOINT RightHandIndex1
								{
									OFFSET -11.334419 -0.901459 3.706815
									CHANNELS 3 Xrotation Yrotation Zrotation
									JOINT RightHandIndex2
									{
										OFFSET -3.283112 0.000000 0.000000
										CHANNELS 3 Xrotation Yrotation Zrotation
										JOINT RightHandIndex3
										{
											OFFSET -3.323853 0.000000 0.000000
											CHANNELS 3 Xrotation Yrotation Zrotation
											End Site
											{
												OFFSET 1.135597 3.097809 0.402452
											}
										}
									}
								}
								JOINT RightHandMiddle1
								{
									OFFSET -11.335861 0.000000 0.000000
									CHANNELS 3 Xrotation Yrotation Zrotation
									JOINT RightHandMiddle2
									{
										OFFSET -3.410492 0.000000 0.000000
										CHANNELS 3 Xrotation Yrotation Zrotation
										JOINT RightHandMiddle3
										{
											OFFSET -3.312172 0.000000 0.000000
											CHANNELS 3 Xrotation Yrotation Zrotation
											End Site
											{
												OFFSET 1.150200 3.080154 0.400270
											}
										}
									}
								}
								JOINT RightHandRing1
								{
									OFFSET -11.514786 -0.013176 -3.003090
									CHANNELS 3 Xrotation Yrotation Zrotation
									JOINT RightHandRing2
									{
										OFFSET -3.053307 0.000000 0.000000
										CHANNELS 3 Xrotation Yrotation Zrotation
										JOINT RightHandRing3
										{
											OFFSET -3.295807 0.000000 0.000000
											CHANNELS 3 Xrotation Yrotation Zrotation
											End Site
											{
												OFFSET 1.281006 3.013344 0.375733
											}
										}
									}
								}
								JOINT RightHandPinky1
								{
									OFFSET -10.518692 -0.960396 -5.730441
									CHANNELS 3 Xrotation Yrotation Zrotation
									JOINT RightHandPinky2
									{
										OFFSET -2.861649 0.000000 0.000000
										CHANNELS 3 Xrotation Yrotation Zrotation
										JOINT RightHandPinky3
										{
											OFFSET -2.863380 0.000000 0.000000
											CHANNELS 3 Xrotation Yrotation Zrotation
											End Site
											{
												OFFSET 0.843597 2.711159 0.369971
											}
										}
									}
								}
							}
							JOINT RSleeve
							{
								OFFSET -6.676277 -0.344902 -1.011730
								CHANNELS 3 Xrotation Yrotation Zrotation
								End Site
								{
									OFFSET 0.000000 14.885353 0.000000
								}
							}
						}
					}
				}
				JOINT Backpack
				{
					OFFSET 0.000000 -2.471497 36.677502
					CHANNELS 3 Xrotation Yrotation Zrotation
					End Site
					{
						OFFSET 0.000000 20.427315 0.000000
					}
				}
				JOINT Hood
				{
					OFFSET 0.000000 18.754097 -10.431000
					CHANNELS 3 Xrotation Yrotation Zrotation
					JOINT Hood1
					{
						OFFSET 0.000000 -5.011002 -7.685901
						CHANNELS 3 Xrotation Yrotation Zrotation
						End Site
						{
							OFFSET 0.000000 9.175140 0.000000
						}
					}
				}
				JOINT LHoodieString
				{
					OFFSET 5.250500 16.397697 3.089900
					CHANNELS 3 Xrotation Yrotation Zrotation
					JOINT LHoodieString1
					{
						OFFSET 0.257700 -6.364304 3.694600
						CHANNELS 3 Xrotation Yrotation Zrotation
						JOINT LHoodieString2
						{
							OFFSET 0.000000 -9.643799 2.679100
							CHANNELS 3 Xrotation Yrotation Zrotation
							End Site
							{
								OFFSET 0.000000 10.009018 0.000000
							}
						}
					}
				}
				JOINT RHoodieString
				{
					OFFSET -5.250500 16.397697 3.089900
					CHANNELS 3 Xrotation Yrotation Zrotation
					JOINT RHoodieString1
					{
						OFFSET -0.257700 -6.364304 3.694600
						CHANNELS 3 Xrotation Yrotation Zrotation
						JOINT RHoodieString2
						{
							OFFSET 0.000000 -9.643799 2.679100
							CHANNELS 3 Xrotation Yrotation Zrotation
							End Site
							{
								OFFSET 0.000000 10.009018 0.000000
							}
						}
					}
				}
			}
			JOINT LBackpack_Strap
			{
				OFFSET 15.223200 -7.719803 -6.610900
				CHANNELS 3 Xrotation Yrotation Zrotation
				End Site
				{
					OFFSET 0.000000 16.040596 0.000000
				}
			}
			JOINT RBackpack_Strap
			{
				OFFSET -15.223000 -7.719803 -6.610900
				CHANNELS 3 Xrotation Yrotation Zrotation
				End Site
				{
					OFFSET 0.000000 16.040596 0.000000
				}
			}
		}
	}
	JOINT BoyFacialAnim_Joint
	{
		OFFSET 1.000000 -82.208099 -1.550900
		CHANNELS 3 Xrotation Yrotation Zrotation
		End Site
		{
			OFFSET 0.000000 30.012791 0.000000
		}
	}
}
MOTION
Frames: 4
Frame Time: 0.033333
2.708201 84.301506 -3.800804 80.672566 6.706373 -3.203170 0.000000 0.000001 0.000000 -63.150338 2.425888 37.909876 85.691519 -7.100005 -1.555381 35.193318 -12.156422 -30.702213 -0.000001 -0.000002 0.000001 -0.000001 -0.000002 -0.000001 0.000001 0.000000 0.000000 -36.392105 -13.307431 -43.593932 36.426830 5.624779 2.743059 15.269663 3.745250 35.211780 -0.000000 -0.000003 0.000000 -0.000000 -0.000003 0.000000 0.000000 -0.000000 0.000001 0.444060 -0.602328 2.579188 0.887424 -2.129686 -0.561912 0.874527 -2.133458 -0.565330 -11.958804 0.502805 -4.668643 7.938330 -5.700230 15.464745 -0.000000 0.000000 -0.000001 -0.000000 0.000000 -0.000001 -0.000000 0.000000 -0.000001 1.241864 -3.683839 -3.480620 -27.532091 30.009239 -35.146634 0.000009 -62.372126 0.000016 -13.835039 -18.646314 23.009041 -1.642772 -9.603337 4.164127 3.780283 -1.591699 0.393591 -0.000000 0.000005 0.000000 -0.130120 -16.559836 -1.461652 0.149791 1.431234 -11.948665 -0.000000 -0.000001 0.000002 -0.034383 2.666767 0.908790 0.150188 1.433134 -11.964655 -0.000000 -0.000001 -0.000002 -0.542591 16.860611 2.893480 0.149790 1.431240 -11.948655 -0.000000 0.000000 -0.000002 -1.532706 30.189054 4.931963 0.144583 -2.624387 -12.448382 -0.000000 0.000000 -0.000000 -0.000002 -0.000001 0.000002 -1.589695 -11.630084 -4.742668 -74.625322 20.270723 11.981832 0.000005 42.092786 -0.000004 -21.061273 -0.346766 -22.145799 -2.015545 11.570697 -4.220052 4.531685 1.768216 0.013341 -0.000001 -0.000000 -0.000002 -5.575667 17.894061 18.053983 0.622672 -2.880796 24.388510 -0.000001 -0.000000 0.000003 -0.571050 1.235668 15.079854 0.622674 -2.880799 24.388524 0.000003 0.000002 -0.000002 1.816816 -8.707645 12.510495 0.622668 -2.880788 24.388524 0.000002 -0.000002 0.000004 5.620381 -25.855939 11.500906 0.622669 -2.880797 24.388509 0.000001 -0.000001 -0.000000 -0.000000 0.000002 0.000001 0.000000 -0.000000 0.000000 0.000000 -0.000000 0.000000 0.000000 -0.000000 0.000000 0.000000 -0.000000 0.000000 0.000000 -0.000000 0.000000 0.000001 -0.000000 0.000000 0.000000 -0.000000 0.000000 0.000000 -0.000000 0.000000 0.000001 -0.000000 0.000000 -0.000001 -0.000000 -0.000000 -0.000001 -0.000000 -0.000000 0.000000 0.000001 0.000000 
2.716440 84.075165 -3.796822 79.941989 6.298255 -3.468321 0.000001 -0.000000 -0.000000 -64.107356 1.123267 38.130470 86.924881 -7.409016 -1.455236 33.071452 -14.633784 -31.661796 -0.000001 0.000003 0.000001 -0.000001 0.000003 -0.000000 -0.000000 0.000001 -0.000001 -35.305623 -13.982336 -43.664023 36.238023 5.822174 2.952065 15.495374 3.847171 35.252116 0.000000 -0.000000 0.000000 0.000000 -0.000000 0.000000 0.000001 -0.000002 -0.000003 0.495461 -0.413359 2.556972 1.015442 -1.792095 -0.613355 1.004011 -1.797327 -0.616274 -11.840019 0.612544 -4.842853 8.006985 -5.520163 15.565041 -0.000000 0.000000 -0.000000 -0.000000 0.000000 -0.000000 -0.000000 0.000000 -0.000000 1.026719 -2.164614 -3.894869 -29.395891 32.898549 -33.196191 0.000012 -63.977084 0.000009 -14.918320 -18.726490 22.840281 -1.642770 -9.603344 4.164126 3.780285 -1.591693 0.393592 -0.000000 0.000002 0.000001 -0.063913 -16.587058 -1.229543 0.148699 1.426078 -11.904858 0.000001 0.000003 0.000000 -0.044690 2.639748 1.131525 0.149095 1.427963 -11.920848 -0.000000 0.000001 0.000000 -0.508486 16.875224 2.775957 0.148696 1.426072 -11.904858 0.000001 -0.000001 -0.000001 -1.467410 30.205576 4.802140 0.143442 -2.629545 -12.404653 -0.000000 0.000000 -0.000000 0.000000 0.000003 0.000006 -1.250964 -9.608960 -4.482948 -72.796894 19.739641 10.465156 0.000010 42.588132 -0.000005 -21.261805 -0.216250 -22.148072 -2.015544 11.570696 -4.220052 4.531682 1.768216 0.013343 -0.000001 0.000001 0.000001 -5.625272 17.859852 18.215556 0.622964 -2.881423 24.394145 -0.000000 0.000001 -0.000001 -0.574387 1.215020 15.236060 0.622956 -2.881399 24.394140 -0.000001 0.000000 0.000003 1.897829 -8.754665 13.044163 0.622954 -2.881407 24.394137 0.000002 0.000003 0.000004 5.877041 -25.867043 12.089299 0.622960 -2.881417 24.394132 -0.000002 -0.000003 0.000001 -0.000000 -0.000002 -0.000000 0.000001 0.000000 -0.000000 0.000001 0.000000 -0.000000 0.000001 0.000000 -0.000000 0.000001 0.000000 -0.000000 0.000001 0.000000 -0.000000 0.000001 0.000000 -0.000000 0.000001 0.000000 -0.000000 0.000001 0.000000 -0.000000 0.000001 0.000000 -0.000000 -0.000000 -0.000000 0.000000 -0.000000 -0.000000 0.000000 0.000001 -0.000000 -0.000000 
2.574439 83.902466 -3.546898 79.033369 5.769974 -3.556179 -0.000001 -0.000000 0.000000 -64.436742 -0.528188 38.224826 87.838015 -7.721347 -1.459922 28.762166 -15.994054 -32.562872 -0.000000 0.000002 0.000002 -0.000000 0.000002 0.000002 -0.000000 -0.000001 -0.000000 -34.117003 -14.779578 -43.619234 35.777917 6.332781 3.015314 15.959630 3.986070 35.163569 0.000001 0.000002 -0.000001 0.000001 0.000002 -0.000001 0.000000 -0.000000 -0.000000 0.540430 -0.240039 2.328215 1.128890 -1.406738 -0.711230 1.119491 -1.413207 -0.713450 -11.688049 0.700105 -4.990687 8.140034 -5.398798 15.551407 -0.000001 0.000000 -0.000001 -0.000001 0.000000 -0.000001 -0.000001 0.000000 -0.000001 0.810220 -0.572777 -4.100165 -31.595219 34.669528 -30.499346 0.000027 -64.957175 0.000015 -16.256424 -18.907502 23.009248 -1.642772 -9.603342 4.164129 3.780284 -1.591697 0.393592 -0.000000 -0.000001 0.000001 -0.002578 -16.612000 -1.014837 0.143067 1.399104 -11.676476 0.000000 0.000001 -0.000003 -0.054135 2.614746 1.337492 0.143458 1.400998 -11.692474 0.000002 -0.000002 -0.000000 -0.516206 16.871925 2.802547 0.143063 1.399108 -11.676476 -0.000000 0.000000 -0.000000 -1.482188 30.201857 4.831529 0.137575 -2.656459 -12.176685 0.000001 0.000000 -0.000002 0.000002 0.000002 0.000002 -0.836453 -7.156524 -4.196617 -70.174491 19.005293 8.299105 -0.000004 42.879378 0.000005 -21.971921 -0.325645 -22.004636 -2.015544 11.570697 -4.220053 4.531686 1.768214 0.013342 0.000000 0.000000 0.000000 -5.575451 17.894324 18.053203 0.629950 -2.896764 24.532829 0.000002 -0.000002 0.000007 -0.571037 1.235771 15.079080 0.629946 -2.896763 24.532824 0.000000 0.000001 0.000002 1.984761 -8.803993 13.613662 0.629942 -2.896755 24.532819 0.000000 0.000003 -0.000001 6.150998 -25.876226 12.717128 0.629948 -2.896783 24.532819 -0.000000 -0.000001 -0.000000 -0.000000 -0.000001 -0.000000 0.000000 0.000000 0.000000 0.000000 0.000000 0.000000 0.000000 0.000000 0.000000 0.000000 0.000000 0.000000 0.000000 0.000000 0.000000 0.000001 0.000000 0.000000 0.000000 0.000000 0.000000 0.000000 0.000000 0.000000 0.000001 0.000000 0.000000 0.000001 -0.000001 0.000000 0.000001 -0.000001 0.000000 -0.000001 -0.000000 0.000000 
2.239744 83.826248 -3.041458 78.028921 5.142466 -3.486248 -0.000001 0.000000 0.000000 -64.092262 -2.412840 38.194544 88.508883 -8.061960 -1.571698 22.342556 -14.710438 -33.316809 -0.000001 0.000002 0.000001 -0.000001 0.000002 0.000001 0.000001 0.000001 -0.000000 -32.819879 -15.642663 -43.400361 35.173521 6.725684 2.873158 16.819716 4.204079 34.888757 -0.000001 0.000000 -0.000001 -0.000001 0.000000 -0.000001 0.000000 -0.000002 -0.000004 0.565491 -0.084937 1.892614 1.191434 -0.966895 -0.793484 1.184793 -0.974052 -0.794799 -11.463404 0.769483 -5.095742 8.334230 -5.289254 15.403946 0.000000 0.000000 -0.000001 0.000000 0.000000 -0.000001 0.000000 0.000000 -0.000001 0.592374 0.970699 -3.980835 -34.268282 35.193598 -27.014469 0.000001 -65.043215 -0.000001 -18.031071 -19.047854 23.486857 -1.642770 -9.603340 4.164127 3.780283 -1.591699 0.393590 0.000000 0.000002 -0.000001 0.080615 -16.645448 -0.724138 0.133889 1.353951 -11.294348 -0.000000 -0.000002 -0.000002 -0.066768 2.580838 1.616268 0.134266 1.355837 -11.310342 0.000001 -0.000002 -0.000000 -0.547932 16.858316 2.911906 0.133883 1.353941 -11.294356 -0.000001 0.000000 -0.000000 -1.542937 30.186458 4.952310 0.127995 -2.701544 -11.795230 -0.000000 0.000000 0.000003 -0.000002 0.000000 0.000001 -0.377851 -4.272924 -4.087751 -67.025814 17.298731 5.676097 0.000001 43.313406 0.000003 -22.611481 -0.625183 -21.424330 -2.015545 11.570698 -4.220051 4.531686 1.768214 0.013344 0.000002 -0.000000 0.000002 -5.468772 17.967369 17.706617 0.648659 -2.937370 24.900599 -0.000001 0.000000 0.000002 -0.563683 1.279963 14.744157 0.648666 -2.937372 24.900599 0.000001 -0.000001 0.000003 2.052787 -8.841839 14.057056 0.648657 -2.937364 24.900604 -0.000000 -0.000001 0.000002 6.364329 -25.881547 13.205880 0.648666 -2.937394 24.900606 0.000003 0.000002 0.000001 0.000001 0.000001 0.000000 0.000000 -0.000000 0.000000 0.000000 -0.000000 0.000000 0.000000 -0.000000 0.000000 0.000000 -0.000000 0.000000 0.000000 -0.000000 0.000000 0.000000 0.000000 0.000000 0.000000 -0.000000 0.000000 0.000000 -0.000000 0.000000 0.000000 0.000000 0.000000 0.000000 0.000000 -0.000000 0.000000 0.000000 -0.000000 -0.000001 0.000000 0.000000 
